<?xml version="1.0" standalone="no"?>
<!DOCTYPE svg PUBLIC "-//W3C//DTD SVG 20010904//EN"
 "http://www.w3.org/TR/2001/REC-SVG-20010904/DTD/svg10.dtd">
<svg version="1.0" xmlns="http://www.w3.org/2000/svg"
 width="500.000000pt" height="68.000000pt" viewBox="0 0 500.000000 68.000000"
 preserveAspectRatio="xMidYMid meet">

<g transform="translate(0.000000,68.000000) scale(0.100000,-0.100000)"
fill="#000000" stroke="none">
<path d="M407 545 c-36 -22 -71 -35 -92 -35 -39 0 -35 9 -70 -154 -14 -66 -27
-122 -30 -124 -4 -5 -7 4 -44 163 l-26 110 -43 3 c-23 2 -42 1 -42 -1 0 -2 14
-51 31 -108 16 -57 39 -134 50 -171 l20 -68 52 0 52 0 44 163 c44 162 53 187
65 169 8 -13 116 28 116 44 0 5 -6 18 -12 27 -12 16 -18 14 -71 -18z"/>
<path d="M3624 562 c-17 -11 -22 -35 -12 -54 12 -25 64 -24 78 1 13 25 13 27
-6 45 -16 17 -42 20 -60 8z"/>
<path d="M4356 554 c-19 -18 -19 -20 -6 -45 20 -36 90 -17 90 25 0 12 -33 36
-50 36 -10 0 -26 -7 -34 -16z"/>
<path d="M3767 533 c-4 -3 -7 -89 -7 -190 l0 -183 35 0 c19 0 35 5 35 10 0 6
13 4 30 -5 58 -30 110 -10 136 51 29 68 10 180 -34 203 -30 16 -83 13 -104 -6
-17 -15 -18 -13 -18 55 l0 72 -33 0 c-19 0 -37 -3 -40 -7z m153 -172 c15 -30
12 -113 -6 -139 -17 -24 -43 -29 -62 -10 -16 16 -16 140 0 156 18 18 56 14 68
-7z"/>
<path d="M1370 336 l0 -176 85 0 c124 0 185 31 185 95 0 28 -23 63 -48 74
l-26 12 28 26 c21 20 26 32 24 60 -5 57 -38 75 -152 81 l-96 5 0 -177z m144
114 c18 -6 26 -17 26 -33 0 -32 -18 -47 -57 -47 -32 0 -33 2 -33 38 0 54 12
62 64 42z m10 -140 c21 -8 26 -16 26 -44 0 -40 -20 -56 -69 -56 -30 0 -31 1
-31 48 0 27 3 52 7 55 9 10 38 9 67 -3z"/>
<path d="M3300 335 l0 -175 40 0 40 0 0 70 c0 92 17 92 67 0 38 -70 38 -70 81
-70 23 0 42 2 42 5 0 2 -19 35 -41 72 l-41 67 26 21 c41 33 52 77 29 122 -23
48 -60 62 -165 62 l-78 1 0 -175z m162 103 c12 -19 10 -62 -4 -76 -7 -7 -27
-12 -45 -12 l-33 0 0 56 0 57 37 -6 c20 -4 40 -12 45 -19z"/>
<path d="M547 483 c-4 -3 -7 -19 -7 -35 0 -18 -5 -28 -15 -28 -8 0 -15 -9 -15
-20 0 -11 6 -20 14 -20 10 0 15 -24 18 -92 5 -84 8 -94 32 -115 29 -25 74 -30
107 -13 26 15 8 50 -26 50 -30 0 -37 23 -33 105 3 57 4 60 31 63 21 3 27 9 27
27 0 20 -5 23 -27 22 -25 -2 -28 2 -31 31 -3 29 -6 32 -36 32 -18 0 -36 -3
-39 -7z"/>
<path d="M2680 459 c0 -22 -5 -32 -20 -36 -11 -3 -20 -13 -20 -23 0 -10 9 -20
20 -23 18 -5 20 -14 20 -92 0 -79 2 -88 26 -112 22 -22 32 -25 70 -20 53 6 58
9 49 36 -4 15 -15 21 -35 21 -25 0 -30 5 -35 33 -4 17 -5 55 -3 82 3 46 5 50
31 53 15 2 27 9 27 18 0 8 1 17 3 21 1 4 -11 7 -28 8 -26 0 -30 4 -33 33 -3
29 -6 32 -38 32 -31 0 -34 -2 -34 -31z"/>
<path d="M396 422 c-3 -3 -6 -63 -6 -134 l0 -128 40 0 41 0 -3 133 -3 132 -32
2 c-17 0 -34 -1 -37 -5z"/>
<path d="M775 408 c-51 -40 -68 -117 -41 -183 48 -115 235 -89 246 35 7 76 0
102 -34 136 -30 30 -40 34 -89 34 -41 0 -61 -5 -82 -22z m115 -47 c5 -11 10
-44 10 -74 0 -67 -25 -97 -65 -79 -38 18 -47 118 -14 159 17 19 57 16 69 -6z"/>
<path d="M1045 421 c-3 -2 -5 -62 -5 -133 l0 -128 40 0 40 0 0 78 c0 88 16
122 56 122 13 0 24 6 24 13 0 6 3 22 6 35 5 19 2 22 -20 22 -16 0 -37 -10 -51
-26 l-23 -25 -4 22 c-2 17 -10 23 -31 24 -15 0 -30 -1 -32 -4z"/>
<path d="M1707 423 c-11 -3 -16 -10 -13 -20 3 -8 6 -18 6 -22 0 -5 26 -8 58
-7 54 1 57 0 60 -25 3 -25 0 -27 -48 -31 -64 -6 -100 -37 -100 -85 0 -70 86
-109 141 -64 23 19 24 19 48 0 13 -10 28 -19 33 -19 13 0 27 44 17 55 -5 5 -9
47 -9 92 0 76 -2 86 -25 108 -21 22 -33 25 -87 24 -35 -1 -71 -3 -81 -6z m113
-172 c0 -51 -61 -72 -68 -23 -6 37 5 52 38 52 26 0 30 -3 30 -29z"/>
<path d="M1988 422 c-16 -3 -18 -18 -18 -133 l0 -129 40 0 40 0 0 73 c0 83 15
121 50 126 29 4 40 17 40 49 0 32 -42 29 -75 -5 l-25 -28 0 25 c0 26 -11 30
-52 22z"/>
<path d="M2180 296 l0 -136 34 0 33 0 5 80 c5 88 23 120 65 120 16 0 23 6 23
19 0 11 3 26 6 35 11 29 -51 20 -75 -10 -20 -25 -21 -26 -21 -5 0 14 -6 21
-19 21 -11 0 -26 3 -35 6 -14 5 -16 -10 -16 -130z"/>
<path d="M2429 415 c-56 -30 -77 -140 -39 -202 35 -59 105 -78 175 -49 37 16
40 22 26 45 -8 12 -14 13 -36 3 -37 -17 -62 -15 -85 8 -40 40 -28 50 65 50
l85 0 0 30 c0 42 -23 94 -51 114 -29 20 -104 20 -140 1z m95 -41 c9 -8 16 -26
16 -40 0 -22 -4 -24 -45 -24 -50 0 -58 16 -29 58 18 26 37 28 58 6z"/>
<path d="M2921 417 c-64 -33 -87 -136 -45 -207 39 -67 147 -78 205 -21 54 55
48 165 -12 216 -34 28 -105 34 -148 12z m98 -51 c19 -22 24 -81 12 -119 -21
-63 -74 -60 -91 4 -10 37 -6 77 12 112 11 21 51 23 67 3z"/>
<path d="M3616 423 c-3 -3 -6 -64 -6 -135 l0 -128 40 0 41 0 -3 131 -3 132
-31 3 c-17 2 -34 1 -38 -3z"/>
<path d="M4101 405 c-77 -65 -63 -204 24 -241 45 -18 89 -18 131 2 29 14 32
19 23 36 -8 15 -16 18 -32 13 -56 -18 -75 -17 -96 4 -41 41 -29 51 64 51 l85
0 0 35 c0 43 -22 88 -52 109 -36 26 -111 21 -147 -9z m101 -27 c9 -7 18 -24
20 -38 3 -23 0 -25 -44 -28 -41 -3 -48 0 -48 15 0 24 27 63 44 63 7 0 19 -6
28 -12z"/>
<path d="M4362 422 c-8 -2 -12 -44 -12 -133 l0 -129 40 0 40 0 0 129 0 129
-28 4 c-16 2 -34 2 -40 0z"/>
<path d="M4500 296 l0 -136 34 0 33 0 5 80 c5 88 23 120 65 120 16 0 23 6 23
19 0 11 3 26 6 35 11 29 -51 20 -75 -10 -20 -25 -21 -26 -21 -5 0 14 -6 21
-19 21 -11 0 -26 3 -35 6 -14 5 -16 -10 -16 -130z"/>
<path d="M4749 415 c-58 -32 -78 -144 -36 -206 31 -46 62 -61 120 -56 72 6
109 46 115 125 5 70 -14 114 -58 137 -36 19 -107 19 -141 0z m111 -54 c15 -30
12 -113 -6 -139 -35 -50 -84 -10 -84 68 0 25 7 56 16 68 19 27 60 29 74 3z"/>
</g>
</svg>
